<mxfile host="app.diagrams.net" modified="2024-03-28T10:40:22.434Z" agent="Mozilla/5.0 (Macintosh; Intel Mac OS X 10_15_7) AppleWebKit/605.1.15 (KHTML, like Gecko) Version/17.4.1 Safari/605.1.15" etag="DRx-dHdgXpe66PH7_Dtk" version="24.2.0" type="device">
  <diagram id="R2lEEEUBdFMjLlhIrx00" name="Page-1">
    <mxGraphModel dx="1363" dy="924" grid="1" gridSize="10" guides="1" tooltips="1" connect="1" arrows="1" fold="1" page="1" pageScale="1" pageWidth="850" pageHeight="1100" math="0" shadow="0" extFonts="Permanent Marker^https://fonts.googleapis.com/css?family=Permanent+Marker">
      <root>
        <mxCell id="0" />
        <mxCell id="1" parent="0" />
        <mxCell id="0-uf5tVv0_C0dwU3aL7H-1" value="Teachers" style="rounded=0;whiteSpace=wrap;html=1;" vertex="1" parent="1">
          <mxGeometry x="500" y="245" width="150" height="60" as="geometry" />
        </mxCell>
        <mxCell id="0-uf5tVv0_C0dwU3aL7H-2" value="Students" style="rounded=0;whiteSpace=wrap;html=1;" vertex="1" parent="1">
          <mxGeometry x="110" y="550" width="150" height="70" as="geometry" />
        </mxCell>
        <mxCell id="0-uf5tVv0_C0dwU3aL7H-3" value="Subjects" style="rounded=0;whiteSpace=wrap;html=1;" vertex="1" parent="1">
          <mxGeometry x="140" y="245" width="140" height="50" as="geometry" />
        </mxCell>
        <mxCell id="0-uf5tVv0_C0dwU3aL7H-4" value="Reviews" style="rounded=0;whiteSpace=wrap;html=1;" vertex="1" parent="1">
          <mxGeometry x="320" y="380" width="115" height="80" as="geometry" />
        </mxCell>
        <mxCell id="0-uf5tVv0_C0dwU3aL7H-5" value="Departments" style="rounded=0;whiteSpace=wrap;html=1;" vertex="1" parent="1">
          <mxGeometry x="510" y="80" width="140" height="70" as="geometry" />
        </mxCell>
        <mxCell id="0-uf5tVv0_C0dwU3aL7H-15" value="" style="edgeStyle=entityRelationEdgeStyle;fontSize=12;html=1;endArrow=ERzeroToMany;startArrow=ERmandOne;rounded=0;exitX=1;exitY=0.5;exitDx=0;exitDy=0;entryX=0;entryY=0.75;entryDx=0;entryDy=0;" edge="1" parent="1" source="0-uf5tVv0_C0dwU3aL7H-2" target="0-uf5tVv0_C0dwU3aL7H-4">
          <mxGeometry width="100" height="100" relative="1" as="geometry">
            <mxPoint x="435" y="550" as="sourcePoint" />
            <mxPoint x="535" y="450" as="targetPoint" />
            <Array as="points">
              <mxPoint x="505" y="540" />
            </Array>
          </mxGeometry>
        </mxCell>
        <mxCell id="0-uf5tVv0_C0dwU3aL7H-20" value="describing" style="edgeLabel;html=1;align=center;verticalAlign=middle;resizable=0;points=[];" vertex="1" connectable="0" parent="0-uf5tVv0_C0dwU3aL7H-15">
          <mxGeometry x="0.0055" y="1" relative="1" as="geometry">
            <mxPoint as="offset" />
          </mxGeometry>
        </mxCell>
        <mxCell id="0-uf5tVv0_C0dwU3aL7H-16" value="" style="edgeStyle=entityRelationEdgeStyle;fontSize=12;html=1;endArrow=ERzeroToMany;startArrow=ERmandOne;rounded=0;exitX=1;exitY=0.5;exitDx=0;exitDy=0;entryX=0;entryY=0.25;entryDx=0;entryDy=0;" edge="1" parent="1" source="0-uf5tVv0_C0dwU3aL7H-3" target="0-uf5tVv0_C0dwU3aL7H-4">
          <mxGeometry width="100" height="100" relative="1" as="geometry">
            <mxPoint x="400" y="480" as="sourcePoint" />
            <mxPoint x="500" y="380" as="targetPoint" />
          </mxGeometry>
        </mxCell>
        <mxCell id="0-uf5tVv0_C0dwU3aL7H-21" value="keep" style="edgeLabel;html=1;align=center;verticalAlign=middle;resizable=0;points=[];" vertex="1" connectable="0" parent="0-uf5tVv0_C0dwU3aL7H-16">
          <mxGeometry x="-0.4045" y="2" relative="1" as="geometry">
            <mxPoint as="offset" />
          </mxGeometry>
        </mxCell>
        <mxCell id="0-uf5tVv0_C0dwU3aL7H-17" value="" style="edgeStyle=entityRelationEdgeStyle;fontSize=12;html=1;endArrow=ERzeroToMany;startArrow=ERmandOne;rounded=0;exitX=0;exitY=0.25;exitDx=0;exitDy=0;entryX=1;entryY=0.5;entryDx=0;entryDy=0;" edge="1" parent="1" source="0-uf5tVv0_C0dwU3aL7H-1" target="0-uf5tVv0_C0dwU3aL7H-4">
          <mxGeometry width="100" height="100" relative="1" as="geometry">
            <mxPoint x="400" y="480" as="sourcePoint" />
            <mxPoint x="500" y="380" as="targetPoint" />
          </mxGeometry>
        </mxCell>
        <mxCell id="0-uf5tVv0_C0dwU3aL7H-22" value="keep" style="edgeLabel;html=1;align=center;verticalAlign=middle;resizable=0;points=[];" vertex="1" connectable="0" parent="0-uf5tVv0_C0dwU3aL7H-17">
          <mxGeometry x="0.0023" y="-2" relative="1" as="geometry">
            <mxPoint as="offset" />
          </mxGeometry>
        </mxCell>
        <mxCell id="0-uf5tVv0_C0dwU3aL7H-18" value="" style="edgeStyle=entityRelationEdgeStyle;fontSize=12;html=1;endArrow=ERmandOne;startArrow=ERmandOne;rounded=0;exitX=1;exitY=0.25;exitDx=0;exitDy=0;entryX=1;entryY=0.5;entryDx=0;entryDy=0;" edge="1" parent="1" source="0-uf5tVv0_C0dwU3aL7H-5" target="0-uf5tVv0_C0dwU3aL7H-1">
          <mxGeometry width="100" height="100" relative="1" as="geometry">
            <mxPoint x="350" y="490" as="sourcePoint" />
            <mxPoint x="450" y="390" as="targetPoint" />
          </mxGeometry>
        </mxCell>
        <mxCell id="0-uf5tVv0_C0dwU3aL7H-23" value="describe" style="edgeLabel;html=1;align=center;verticalAlign=middle;resizable=0;points=[];" vertex="1" connectable="0" parent="0-uf5tVv0_C0dwU3aL7H-18">
          <mxGeometry x="-0.0115" relative="1" as="geometry">
            <mxPoint as="offset" />
          </mxGeometry>
        </mxCell>
        <mxCell id="0-uf5tVv0_C0dwU3aL7H-19" value="" style="edgeStyle=entityRelationEdgeStyle;fontSize=12;html=1;endArrow=ERmandOne;startArrow=ERmandOne;rounded=0;entryX=0;entryY=0.25;entryDx=0;entryDy=0;exitX=1;exitY=0.25;exitDx=0;exitDy=0;" edge="1" parent="1" source="0-uf5tVv0_C0dwU3aL7H-3" target="0-uf5tVv0_C0dwU3aL7H-5">
          <mxGeometry width="100" height="100" relative="1" as="geometry">
            <mxPoint x="350" y="440" as="sourcePoint" />
            <mxPoint x="450" y="340" as="targetPoint" />
          </mxGeometry>
        </mxCell>
        <mxCell id="0-uf5tVv0_C0dwU3aL7H-24" value="describe" style="edgeLabel;html=1;align=center;verticalAlign=middle;resizable=0;points=[];" vertex="1" connectable="0" parent="0-uf5tVv0_C0dwU3aL7H-19">
          <mxGeometry x="-0.0041" relative="1" as="geometry">
            <mxPoint as="offset" />
          </mxGeometry>
        </mxCell>
      </root>
    </mxGraphModel>
  </diagram>
</mxfile>
